:FULLY-SPECIFIED
:FORCE-ALL-JOINTS-BE-3DOF
:DEGREES
713
root 5.53939 21.5033 7.37602 -44.6884 -88.7415 60.8466
lfemur -34.9956 -12.498 9.82684
ltibia 72.9483 0 0
lfoot 5.88796 -7.45612 0
ltoes 31.4781 0 0
rfemur -32.4126 -0.866112 -0.557946
rtibia 85.7264 0 0
rfoot 20.2108 -17.8752 0
rtoes 38.6021 0 0
lowerback 6.25975 -0.823868 -1.884
upperback -1.21556 -1.33879 -1.58353
thorax -4.76869 -0.63977 -0.445101
lowerneck -6.74521 -6.14589 -2.26055
upperneck -0.212131 -8.17026 4.91549
head 1.39624 -4.02082 1.64825
lclavicle -1.2921e-14 -4.41302e-14 0
lhumerus 1.71129 -20.9172 15.4022
lradius 45.9936 0 0
lwrist 23.5511 0 0
lhand -21.4933 -3.18174 0
lfingers 7.12502 0 0
lthumb 4.89802 26.7416 0
rclavicle -1.2921e-14 -4.41302e-14 0
rhumerus -12.3454 -3.453 -26.3227
rradius 99.2425 0 0
rwrist -9.46951 0 0
rhand -28.5883 -36.048 0
rfingers 7.12502 0 0
rthumb -1.95411 -786.019 0
714
root 5.51632 21.5248 7.5857 -114.811 -88.5347 131.091
lfemur -34.2732 -13.513 9.15372
ltibia 69.0394 0 0
lfoot 6.68345 -8.29926 0
ltoes 30.7132 0 0
rfemur -33.219 -1.14835 -1.23526
rtibia 91.4966 0 0
rfoot 20.8563 -19.1874 0
rtoes 40.821 0 0
lowerback 6.14711 -0.699867 -1.84115
upperback -1.26194 -1.16723 -1.5753
thorax -4.75466 -0.555866 -0.47938
lowerneck -6.80973 -6.29731 -2.34534
upperneck -0.317173 -8.36323 4.91648
head 1.38488 -4.11871 1.65447
lclavicle 3.77691e-15 -7.95139e-16 0
lhumerus -0.00677256 -20.6113 16.0088
lradius 45.2287 0 0
lwrist 22.9737 0 0
lhand -21.8284 -3.2593 0
lfingers 7.12502 0 0
lthumb 4.57444 26.6713 0
rclavicle 3.77691e-15 -7.95139e-16 0
rhumerus -11.6072 -2.62759 -27.0112
rradius 99.2225 0 0
rwrist -9.63092 0 0
rhand -27.5551 -34.9797 0
rfingers 7.12502 0 0
rthumb -0.956194 -784.957 0
715
root 5.48503 21.4809 7.67643 -114.929 -87.0942 132.945
lfemur -34.3179 -13.2374 8.92159
ltibia 68.8748 0 0
lfoot 6.43344 -8.0473 0
ltoes 30.6439 0 0
rfemur -33.0787 -1.36362 -1.0413
rtibia 91.2262 0 0
rfoot 20.5252 -19.3404 0
rtoes 40.3134 0 0
lowerback 6.10391 -0.653944 -1.838
upperback -1.26155 -1.10421 -1.59602
thorax -4.72747 -0.524432 -0.504634
lowerneck -6.79723 -6.30513 -2.33575
upperneck -0.339409 -8.37239 4.92404
head 1.37596 -4.12315 1.65574
lclavicle 3.80533e-15 -6.29015e-16 0
lhumerus -0.481962 -20.5345 16.6664
lradius 45.4346 0 0
lwrist 22.8712 0 0
lhand -21.8133 -3.28541 0
lfingers 7.12502 0 0
lthumb 4.58903 26.6448 0
rclavicle 3.80533e-15 -6.29015e-16 0
rhumerus -11.7462 -2.19334 -27.7119
rradius 99.0638 0 0
rwrist -9.49645 0 0
rhand -27.5042 -34.8439 0
rfingers 7.12502 0 0
rthumb -0.907016 -784.821 0
716
root 5.45103 21.4332 7.77489 -114.981 -85.5267 134.873
lfemur -34.3677 -12.9358 8.66951
ltibia 68.7005 0 0
lfoot 6.16028 -7.772 0
ltoes 30.57 0 0
rfemur -32.9251 -1.59781 -0.829365
rtibia 90.9254 0 0
rfoot 20.164 -19.5056 0
rtoes 39.7588 0 0
lowerback 6.05702 -0.604119 -1.83467
upperback -1.26108 -1.03584 -1.61859
thorax -4.69791 -0.490327 -0.532066
lowerneck -6.78356 -6.3135 -2.32524
upperneck -0.363491 -8.38217 4.93232
head 1.36626 -4.12788 1.65713
lclavicle 3.79998e-15 -5.0219e-16 0
lhumerus -0.996975 -20.4512 17.3811
lradius 45.6596 0 0
lwrist 22.7603 0 0
lhand -21.7964 -3.31382 0
lfingers 7.12502 0 0
lthumb 4.60537 26.6159 0
rclavicle 3.79998e-15 -5.0219e-16 0
rhumerus -11.8982 -1.72173 -28.4733
rradius 98.8911 0 0
rwrist -9.3499 0 0
rhand -27.4498 -34.6974 0
rfingers 7.12502 0 0
rthumb -0.854533 -784.674 0
717
root 5.41441 21.3817 7.88082 -114.97 -83.8364 136.874
lfemur -34.4223 -12.6092 8.39812
ltibia 68.5168 0 0
lfoot 5.86472 -7.47411 0
ltoes 30.4916 0 0
rfemur -32.7587 -1.8503 -0.60005
rtibia 90.5952 0 0
rfoot 19.7738 -19.6826 0
rtoes 39.1585 0 0
lowerback 6.00657 -0.55052 -1.83116
upperback -1.26055 -0.962289 -1.64295
thorax -4.66608 -0.453637 -0.561605
lowerneck -6.76874 -6.3224 -2.31385
upperneck -0.389358 -8.39255 4.94127
head 1.35582 -4.1329 1.65864
lclavicle 3.76221e-15 -4.13496e-16 0
lhumerus -1.5505 -20.3617 18.1511
lradius 45.903 0 0
lwrist 22.6411 0 0
lhand -21.7777 -3.34445 0
lfingers 7.12502 0 0
lthumb 4.62343 26.5848 0
rclavicle 3.76221e-15 -4.13496e-16 0
rhumerus -12.0627 -1.214 -29.2935
rradius 98.7049 0 0
rwrist -9.19165 0 0
rhand -27.3922 -34.5405 0
rfingers 7.12502 0 0
rthumb -0.798861 -784.517 0
718
root 5.37524 21.3265 7.99397 -114.897 -82.0274 138.945
lfemur -34.4817 -12.2582 8.1081
ltibia 68.324 0 0
lfoot 5.54752 -7.1544 0
ltoes 30.4087 0 0
rfemur -32.5798 -2.12046 -0.353942
rtibia 90.2364 0 0
rfoot 19.3556 -19.871 0
rtoes 38.5143 0 0
lowerback 5.95268 -0.493278 -1.82746
upperback -1.25996 -0.883741 -1.66903
thorax -4.63203 -0.41445 -0.593179
lowerneck -6.75282 -6.3318 -2.30161
upperneck -0.416949 -8.40351 4.95089
head 1.34466 -4.13819 1.66027
lclavicle 3.69334e-15 -3.61765e-16 0
lhumerus -2.14122 -20.2663 18.9746
lradius 46.1642 0 0
lwrist 22.5141 0 0
lhand -21.7573 -3.37722 0
lfingers 7.12502 0 0
lthumb 4.64313 26.5515 0
rclavicle 3.69334e-15 -3.61765e-16 0
rhumerus -12.2394 -0.671367 -30.1704
rradius 98.5057 0 0
rwrist -9.02211 0 0
rhand -27.3314 -34.3735 0
rfingers 7.12502 0 0
rthumb -0.740114 -784.35 0
719
root 5.33363 21.2679 8.11408 -114.764 -80.1039 141.082
lfemur -34.5456 -11.8839 7.8001
ltibia 68.1225 0 0
lfoot 5.20944 -6.81363 0
ltoes 30.3216 0 0
rfemur -32.3889 -2.40767 -0.0916272
rtibia 89.8502 0 0
rfoot 18.9103 -20.0704 0
rtoes 37.8276 0 0
lowerback 5.89548 -0.432519 -1.8236
upperback -1.2593 -0.800369 -1.69678
thorax -4.59585 -0.372856 -0.626716
lowerneck -6.73584 -6.34168 -2.28854
upperneck -0.446202 -8.41502 4.96115
head 1.3328 -4.14375 1.662
lclavicle 3.59473e-15 -3.45827e-16 0
lhumerus -2.76783 -20.1651 19.8496
lradius 46.4425 0 0
lwrist 22.3794 0 0
lhand -21.7352 -3.41206 0
lfingers 7.12502 0 0
lthumb 4.66441 26.5161 0
rclavicle 3.59473e-15 -3.45827e-16 0
rhumerus -12.4278 -0.0950687 -31.1022
rradius 98.2938 0 0
rwrist -8.84168 0 0
rhand -27.2675 -34.1969 0
rfingers 7.12502 0 0
rthumb -0.678407 -784.173 0
720
root 5.28966 21.2058 8.24091 -114.573 -78.0701 143.284
lfemur -34.6139 -11.487 7.47479
ltibia 67.9126 0 0
lfoot 4.85124 -6.45258 0
ltoes 30.2305 0 0
rfemur -32.1864 -2.7113 0.186305
rtibia 89.4374 0 0
rfoot 18.4389 -20.2803 0
rtoes 37.0999 0 0
lowerback 5.83507 -0.368372 -1.81958
upperback -1.25857 -0.71235 -1.72614
thorax -4.55762 -0.328941 -0.662147
lowerneck -6.71783 -6.35204 -2.27468
upperneck -0.477058 -8.42707 4.97202
head 1.32027 -4.14956 1.66385
lclavicle 3.46771e-15 -3.64514e-16 0
lhumerus -3.42902 -20.0583 20.7743
lradius 46.7374 0 0
lwrist 22.2374 0 0
lhand -21.7116 -3.44889 0
lfingers 7.12502 0 0
lthumb 4.68723 26.4787 0
rclavicle 3.46771e-15 -3.64514e-16 0
rhumerus -12.6275 0.513667 -32.0867
rradius 98.0699 0 0
rwrist -8.65075 0 0
rhand -27.2006 -34.011 0
rfingers 7.12502 0 0
rthumb -0.613855 -783.986 0
721
root 5.24341 21.1405 8.37419 -114.325 -75.9302 145.547
lfemur -34.6864 -11.0684 7.13284
ltibia 67.6946 0 0
lfoot 4.47368 -6.072 0
ltoes 30.1354 0 0
rfemur -31.9728 -3.03072 0.479266
rtibia 88.999 0 0
rfoot 17.9423 -20.5004 0
rtoes 36.3328 0 0
lowerback 5.77159 -0.300966 -1.81539
upperback -1.25779 -0.61986 -1.75705
thorax -4.51742 -0.282794 -0.699398
lowerneck -6.69883 -6.36284 -2.26006
upperneck -0.509453 -8.43962 4.98348
head 1.3071 -4.15561 1.66579
lclavicle 3.31362e-15 -4.16657e-16 0
lhumerus -4.12346 -19.9462 21.7468
lradius 47.0482 0 0
lwrist 22.0883 0 0
lhand -21.6864 -3.48763 0
lfingers 7.12502 0 0
lthumb 4.71152 26.4393 0
rclavicle 3.31362e-15 -4.16657e-16 0
rhumerus -12.8381 1.15361 -33.122
rradius 97.8342 0 0
rwrist -8.44971 0 0
rhand -27.131 -33.8161 0
rfingers 7.12502 0 0
rthumb -0.546574 -783.791 0
722
root 5.19499 21.072 8.51367 -114.022 -73.6883 147.87
lfemur -34.763 -10.6289 6.7749
ltibia 67.4689 0 0
lfoot 4.07752 -5.67266 0
ltoes 30.0365 0 0
rfemur -31.7485 -3.36531 0.786669
rtibia 88.536 0 0
rfoot 17.4217 -20.7302 0
rtoes 35.5278 0 0
lowerback 5.70515 -0.230429 -1.81105
upperback -1.25695 -0.523075 -1.78944
thorax -4.47532 -0.234503 -0.738399
lowerneck -6.67888 -6.37407 -2.24469
upperneck -0.543328 -8.45267 4.9955
head 1.29331 -4.16189 1.66783
lclavicle 3.13381e-15 -5.01088e-16 0
lhumerus -4.84986 -19.8289 22.7652
lradius 47.3743 0 0
lwrist 21.9325 0 0
lhand -21.6598 -3.52821 0
lfingers 7.12502 0 0
lthumb 4.73722 26.398 0
rclavicle 3.13381e-15 -5.01088e-16 0
rhumerus -13.0592 1.82353 -34.2062
rradius 97.5874 0 0
rwrist -8.23897 0 0
rhand -27.0586 -33.6127 0
rfingers 7.12502 0 0
rthumb -0.476677 -783.587 0
